<?xml version="1.0" encoding="UTF-8" standalone="no"?>
<!-- Created with Inkscape (http://www.inkscape.org/) -->

<svg
   xmlns:osb="http://www.openswatchbook.org/uri/2009/osb"
   xmlns:dc="http://purl.org/dc/elements/1.1/"
   xmlns:cc="http://creativecommons.org/ns#"
   xmlns:rdf="http://www.w3.org/1999/02/22-rdf-syntax-ns#"
   xmlns:svg="http://www.w3.org/2000/svg"
   xmlns="http://www.w3.org/2000/svg"
   xmlns:sodipodi="http://sodipodi.sourceforge.net/DTD/sodipodi-0.dtd"
   xmlns:inkscape="http://www.inkscape.org/namespaces/inkscape"
   width="744.09448819"
   height="1052.3622047"
   id="svg2"
   version="1.1"
   inkscape:version="0.48.2 r9819"
   sodipodi:docname="freqdomain.eps">
  <defs
     id="defs4">
    <linearGradient
       id="linearGradient3834"
       osb:paint="solid">
      <stop
         style="stop-color:#000000;stop-opacity:1;"
         offset="0"
         id="stop3836" />
    </linearGradient>
  </defs>
  <sodipodi:namedview
     id="base"
     pagecolor="#ffffff"
     bordercolor="#666666"
     borderopacity="1.0"
     inkscape:pageopacity="0.0"
     inkscape:pageshadow="2"
     inkscape:zoom="0.59811644"
     inkscape:cx="434.23612"
     inkscape:cy="520.40033"
     inkscape:document-units="px"
     inkscape:current-layer="layer1"
     showgrid="false"
     inkscape:window-width="988"
     inkscape:window-height="717"
     inkscape:window-x="0"
     inkscape:window-y="0"
     inkscape:window-maximized="0" />
  <metadata
     id="metadata7">
    <rdf:RDF>
      <cc:Work
         rdf:about="">
        <dc:format>image/svg+xml</dc:format>
        <dc:type
           rdf:resource="http://purl.org/dc/dcmitype/StillImage" />
        <dc:title></dc:title>
      </cc:Work>
    </rdf:RDF>
  </metadata>
  <g
     inkscape:label="Layer 1"
     inkscape:groupmode="layer"
     id="layer1">
    <path
       style="fill:none;stroke:#000000;stroke-width:1px;stroke-linecap:butt;stroke-linejoin:miter;stroke-opacity:1"
       d="m 38.571428,459.50504 c 112.142862,0 207.142862,-294.28571 319.285712,-294.28571 112.14286,0 235.71429,294.28571 347.85715,294.28571"
       id="path2993"
       inkscape:connector-curvature="0"
       sodipodi:nodetypes="ccc" />
    <text
       xml:space="preserve"
       style="font-size:40px;font-style:normal;font-weight:normal;line-height:125%;letter-spacing:0px;word-spacing:0px;fill:#000000;fill-opacity:1;stroke:none;font-family:Sans"
       x="344.85715"
       y="177.21933"
       id="text2995"
       sodipodi:linespacing="125%"><tspan
         sodipodi:role="line"
         id="tspan2997"
         x="344.85715"
         y="177.21933">x</tspan><tspan
         sodipodi:role="line"
         x="344.85715"
         y="227.21933"
         id="tspan2999" /></text>
    <flowRoot
       xml:space="preserve"
       id="flowRoot3001"
       style="fill:black;stroke:none;stroke-opacity:1;stroke-width:1px;stroke-linejoin:miter;stroke-linecap:butt;fill-opacity:1;font-family:Sans;font-style:normal;font-weight:normal;font-size:40px;line-height:125%;letter-spacing:0px;word-spacing:0px"><flowRegion
         id="flowRegion3003"><rect
           id="rect3005"
           width="12.857142"
           height="110"
           x="341.42856"
           y="163.79076" /></flowRegion><flowPara
         id="flowPara3007"></flowPara></flowRoot>    <text
       xml:space="preserve"
       style="font-size:40px;font-style:normal;font-weight:normal;line-height:125%;letter-spacing:0px;word-spacing:0px;fill:#000000;fill-opacity:1;stroke:none;font-family:Sans"
       x="30.000004"
       y="470.93362"
       id="text3009"
       sodipodi:linespacing="125%"><tspan
         sodipodi:role="line"
         id="tspan3011"
         x="30.000004"
         y="470.93362">x</tspan></text>
    <text
       xml:space="preserve"
       style="font-size:40px;font-style:normal;font-weight:normal;line-height:125%;letter-spacing:0px;word-spacing:0px;fill:#000000;fill-opacity:1;stroke:none;font-family:Sans"
       x="123.42857"
       y="407.50504"
       id="text3013"
       sodipodi:linespacing="125%"><tspan
         sodipodi:role="line"
         id="tspan3015"
         x="123.42857"
         y="407.50504">x</tspan></text>
    <text
       xml:space="preserve"
       style="font-size:40px;font-style:normal;font-weight:normal;line-height:125%;letter-spacing:0px;word-spacing:0px;fill:#000000;fill-opacity:1;stroke:none;font-family:Sans"
       x="524.85712"
       y="329.50504"
       id="text3017"
       sodipodi:linespacing="125%"><tspan
         sodipodi:role="line"
         id="tspan3019"
         x="524.85712"
         y="329.50504">x</tspan></text>
    <text
       xml:space="preserve"
       style="font-size:40px;font-style:normal;font-weight:normal;line-height:125%;letter-spacing:0px;word-spacing:0px;fill:#000000;fill-opacity:1;stroke:none;font-family:Sans"
       x="184.28572"
       y="325.21933"
       id="text3021"
       sodipodi:linespacing="125%"><tspan
         sodipodi:role="line"
         id="tspan3023"
         x="184.28572"
         y="325.21933">x</tspan></text>
    <text
       xml:space="preserve"
       style="font-size:40px;font-style:normal;font-weight:normal;line-height:125%;letter-spacing:0px;word-spacing:0px;fill:#000000;fill-opacity:1;stroke:none;font-family:Sans"
       x="690.57147"
       y="469.79077"
       id="text3025"
       sodipodi:linespacing="125%"><tspan
         sodipodi:role="line"
         id="tspan3027"
         x="690.57147"
         y="469.79077">x</tspan></text>
    <text
       xml:space="preserve"
       style="font-size:40px;font-style:normal;font-weight:normal;line-height:125%;letter-spacing:0px;word-spacing:0px;fill:#000000;fill-opacity:1;stroke:none;font-family:Sans"
       x="452"
       y="241.79077"
       id="text3029"
       sodipodi:linespacing="125%"><tspan
         sodipodi:role="line"
         id="tspan3031"
         x="452"
         y="241.79077">x</tspan></text>
    <text
       xml:space="preserve"
       style="font-size:40px;font-style:normal;font-weight:normal;line-height:125%;letter-spacing:0px;word-spacing:0px;fill:#000000;fill-opacity:1;stroke:none;font-family:Sans"
       x="596.28571"
       y="414.07645"
       id="text3033"
       sodipodi:linespacing="125%"><tspan
         sodipodi:role="line"
         id="tspan3035"
         x="596.28571"
         y="414.07645">x</tspan></text>
    <text
       xml:space="preserve"
       style="font-size:40px;font-style:normal;font-weight:normal;line-height:125%;letter-spacing:0px;word-spacing:0px;fill:#000000;fill-opacity:1;stroke:none;font-family:Sans"
       x="246.28571"
       y="242.64789"
       id="text3037"
       sodipodi:linespacing="125%"><tspan
         sodipodi:role="line"
         id="tspan3039"
         x="246.28571"
         y="242.64789">x</tspan></text>
    <rect
       style="fill:none;fill-opacity:1"
       id="rect3064"
       width="92.85714"
       height="87.14286"
       x="308.57144"
       y="413.79074" />
    <path
       style="fill:#000000;fill-opacity:1;stroke:#000000;stroke-width:0.8795805;stroke-miterlimit:4;stroke-opacity:1;stroke-dasharray:none"
       d="m 357.54479,180.42231 -13.61237,19.19972 6.83816,-0.007 0,44.26033 13.71122,0 0,-44.26739 6.83817,-0.007 -13.77518,-19.17855 z"
       id="rect3850"
       inkscape:connector-curvature="0" />
    <text
       xml:space="preserve"
       style="font-size:;font-style:normal;font-weight:normal;line-height:125%;letter-spacing:0px;word-spacing:0px;baseline-shift:baseline;fill:#000000;fill-opacity:1;stroke:none;font-family:Sans"
       x="199.79562"
       y="535.7309"
       id="text3906"
       sodipodi:linespacing="125%"><tspan
         sodipodi:role="line"
         id="tspan3908"
         x="199.79562"
         y="535.7309" /></text>
    <path
       style="font-size:40px;font-style:italic;font-weight:normal;line-height:125%;letter-spacing:0px;word-spacing:0px;fill:#000000;fill-opacity:1;stroke:none;font-family:Sans;-inkscape-font-specification:Sans Italic"
       d="m 368.20566,254.94697 -0.84375,0.78125 c 0.53329,0.66668 1.08746,1.00002 1.6875,1 0.63329,0.73335 1.02287,1.2896 1.15625,1.65625 0.16662,0.50002 0.13746,1.22085 -0.0625,2.1875 -0.73338,3.73334 -2.81671,6.67917 -6.25,8.8125 -3.00003,1.9 -6.44378,2.84375 -10.34375,2.84375 -1.13336,0 -2.13336,-0.22291 -3,-0.65625 -1.06669,-0.56666 -1.48127,-1.34375 -1.28125,-2.34375 0.1,-0.59999 0.48748,-1.48749 1.1875,-2.6875 0.73331,-1.23332 1.17914,-2.17916 1.3125,-2.8125 0.0666,-0.43332 0.0375,-0.76666 -0.0625,-1 -0.0667,-0.1 -0.28961,-0.34999 -0.65625,-0.75 -0.30002,10e-6 -0.46669,0.002 -0.5,-0.0312 -0.10002,-0.13332 -0.18127,-0.30207 -0.28125,-0.46875 -2.60002,3.40001 -4.8521,5.81876 -6.71875,7.21875 -2.66668,2 -5.58126,3 -8.78125,3 -0.53334,0 -1.33959,-0.3625 -2.40625,-1.0625 0.63333,-0.76666 2.10624,-2.12708 4.40625,-4.09375 4.19999,-3.63332 6.42082,-6.04999 6.6875,-7.25 0.1,-0.49998 -0.0125,-0.9729 -0.3125,-1.40625 -0.26668,-0.43332 -0.62502,-0.65623 -1.125,-0.65625 -0.70001,2e-5 -3.00626,2.0271 -6.90625,6.09375 -3.9,4.03334 -5.92709,6.53542 -6.09375,7.46875 -0.43333,2.1 1.06458,3.15625 4.53125,3.15625 1.19999,0 2.67291,-0.3625 4.40625,-1.0625 4.23332,-1.7 6.59373,-2.58958 7.09375,-2.65625 l 0.96875,0.40625 -0.21875,0.9375 c 1.29998,2.03333 3.43956,3.0625 6.40625,3.0625 3.89997,0 7.76038,-0.91667 11.59375,-2.75 4.63329,-2.23333 7.29996,-5.09374 8,-8.59375 0.36662,-1.96665 0.31037,-3.74374 -0.15625,-5.34375 -0.60004,-1.99998 -1.73754,-2.99998 -3.4375,-3 z m 15.375,14.59375 c -1.14259,2e-5 -2.15235,0.23049 -3.03125,0.71875 -0.86915,0.4883 -1.63672,1.23244 -2.28125,2.21875 l 0,-2.5625 -2.71875,0 0,16.40625 2.71875,0 0,-9.28125 c -1e-5,-1.60155 0.41015,-2.8535 1.25,-3.78125 0.83984,-0.92772 2.01366,-1.37499 3.46875,-1.375 1.21093,10e-6 2.11327,0.38478 2.71875,1.15625 0.60546,0.7715 0.90624,1.91603 0.90625,3.46875 l 0,9.8125 2.6875,0 0,-9.90625 c -2e-5,-2.26561 -0.47072,-3.96288 -1.4375,-5.125 -0.96681,-1.17186 -2.3965,-1.74998 -4.28125,-1.75 z"
       id="text3976"
       inkscape:connector-curvature="0" />
  </g>
</svg>
