<?xml version="1.0" encoding="UTF-8" standalone="no"?>
<!-- Created with Inkscape (http://www.inkscape.org/) -->

<svg
   xmlns:dc="http://purl.org/dc/elements/1.1/"
   xmlns:cc="http://creativecommons.org/ns#"
   xmlns:rdf="http://www.w3.org/1999/02/22-rdf-syntax-ns#"
   xmlns:svg="http://www.w3.org/2000/svg"
   xmlns="http://www.w3.org/2000/svg"
   xmlns:sodipodi="http://sodipodi.sourceforge.net/DTD/sodipodi-0.dtd"
   xmlns:inkscape="http://www.inkscape.org/namespaces/inkscape"
   width="744.09448819"
   height="1052.3622047"
   id="svg3996"
   version="1.1"
   inkscape:version="0.48.2 r9819"
   sodipodi:docname="timedomain.eps">
  <defs
     id="defs3998" />
  <sodipodi:namedview
     id="base"
     pagecolor="#ffffff"
     bordercolor="#666666"
     borderopacity="1.0"
     inkscape:pageopacity="0.0"
     inkscape:pageshadow="2"
     inkscape:zoom="1"
     inkscape:cx="231.69709"
     inkscape:cy="344.3054"
     inkscape:document-units="px"
     inkscape:current-layer="layer1"
     showgrid="false"
     inkscape:window-width="1280"
     inkscape:window-height="752"
     inkscape:window-x="-3"
     inkscape:window-y="0"
     inkscape:window-maximized="0" />
  <metadata
     id="metadata4001">
    <rdf:RDF>
      <cc:Work
         rdf:about="">
        <dc:format>image/svg+xml</dc:format>
        <dc:type
           rdf:resource="http://purl.org/dc/dcmitype/StillImage" />
        <dc:title></dc:title>
      </cc:Work>
    </rdf:RDF>
  </metadata>
  <g
     inkscape:label="Layer 1"
     inkscape:groupmode="layer"
     id="layer1">
    <path
       style="fill:none;stroke:#000000;stroke-width:1px;stroke-linecap:butt;stroke-linejoin:miter;stroke-opacity:1"
       d="m 48.571429,600.93361 40.892857,0 40.892854,0 c 31.32064,-196.36903 18.90772,462.72449 63.4433,78.73176 11.04817,-64.75019 24.14076,-62.61264 32.26274,2.46398 15.29288,160.21053 28.162,73.59261 34.48044,32.37662 15.29288,-86.08824 22.96366,-56.72823 30.27926,-12.18837 12.85904,77.77338 19.77316,58.13326 28.28061,6.79821 9.30991,-44.87225 16.67996,-51.49069 28.98137,1.35884 5.76971,21.71086 13.5005,31.86386 19.4446,1.31176 8.793,-34.30418 12.81924,-37.10851 20.41767,-8.63745 3.99019,15.95458 10.28495,30.93393 23.0603,-2.28637 7.06518,-18.3719 10.83645,1.83865 10.83645,1.83865 3.57631,14.11506 7.29823,11.71724 11.45873,1.74561 4.58563,-13.96026 10.01811,-10.38029 13.4355,0.58848 3.45081,11.06838 8.71319,1.45027 9.92821,-2.45235 4.74964,-8.9941 6.57083,-8.15361 9.59705,-1.95933 4.07346,8.44784 3.76765,7.85061 8.99372,-0.6242 6.3677,-10.32613 4.15562,15.59673 14.27521,1.86531 3.75515,-5.09541 1.76044,9.14261 9.29221,0.0853 3.41403,-4.10554 2.63006,6.54925 6.06209,0.25438 0.86966,-1.59509 2.12575,-0.3447 3.15452,1.67163 0.58225,1.14118 1.29892,-0.20184 2.39976,-2.26354 0.56854,-1.06478 1.67364,1.44601 2.79181,0.87035 0.76131,-0.39194 1.80887,-2.40469 3.0405,-0.76019 0.67693,0.90385 0.82615,1.13976 2.05879,0.64113 0.61142,-0.24733 0.74602,-1.50033 3.37341,-0.0368 1.0131,0.56432 1.21956,0.54069 2.51904,-0.64252 0.80312,-0.73127 1.23728,2.19218 3.25492,0.0786 0.93388,-0.97827 1.25714,1.88487 2.80141,0.37993 0.73137,-0.71275 2.05041,0.26159 2.89564,0.20591 4.39903,-0.28977 8.25679,0.0725 11.94597,0.0604 9.75158,-0.0319 17.24845,0.92698 20.91269,0.0675"
       id="path4023"
       inkscape:connector-curvature="0"
       sodipodi:nodetypes="cccccccccccssccccsssssssssssssssc" />
    <path
       style="fill:none;stroke:#0000fa;stroke-width:3;stroke-linecap:butt;stroke-linejoin:miter;stroke-opacity:0.88444440999999996;stroke-miterlimit:4;stroke-dasharray:none"
       d="M 148.42728,599.67447 C 265.55147,667.8588 411.49584,700.19363 563.06366,701.5995"
       id="path4044"
       inkscape:connector-curvature="0"
       sodipodi:nodetypes="cc" />
    <text
       xml:space="preserve"
       style="font-size:115.53816986px;font-style:italic;font-weight:normal;line-height:110.00000238%;letter-spacing:0px;word-spacing:0px;fill:#000000;fill-opacity:1;stroke:none;font-family:Sans;-inkscape-font-specification:Sans Italic"
       x="-1445.1766"
       y="201.65468"
       id="text4556"
       sodipodi:linespacing="110%"
       transform="matrix(0.01014684,-0.58696467,1.7036196,0.00349598,0,0)"><tspan
         sodipodi:role="line"
         id="tspan4558"
         x="-1445.1766"
         y="201.65468"
         style="font-size:127.2331543px;font-style:normal;line-height:110.00000238%;fill:#ff0000;-inkscape-font-specification:Sans">{</tspan></text>
    <text
       xml:space="preserve"
       style="font-size:40px;font-style:italic;font-weight:normal;line-height:125%;letter-spacing:0px;word-spacing:0px;fill:#000000;fill-opacity:1;stroke:none;font-family:Sans;-inkscape-font-specification:Sans Italic"
       x="232.67023"
       y="879.4411"
       id="text4600"
       sodipodi:linespacing="125%"><tspan
         sodipodi:role="line"
         id="tspan4602"
         x="232.67023"
         y="879.4411" /></text>
    <flowRoot
       xml:space="preserve"
       id="flowRoot4626"
       style="fill:black;stroke:none;stroke-opacity:1;stroke-width:1px;stroke-linejoin:miter;stroke-linecap:butt;fill-opacity:1;font-family:Sans;font-style:italic;font-weight:normal;font-size:40px;line-height:125%;letter-spacing:0px;word-spacing:0px;-inkscape-font-specification:Sans Italic"><flowRegion
         id="flowRegion4628"><rect
           id="rect4630"
           width="212.28523"
           height="44.284668"
           x="216.50282"
           y="879.4411" /></flowRegion><flowPara
         id="flowPara4632"></flowPara></flowRoot>    <g
       id="g4656"
       transform="translate(11,-320)">
      <text
         sodipodi:linespacing="125%"
         id="text4639"
         y="958.36218"
         x="237"
         style="font-size:40px;font-style:italic;font-weight:normal;line-height:125%;letter-spacing:0px;word-spacing:0px;fill:#000000;fill-opacity:1;stroke:none;font-family:Sans;-inkscape-font-specification:Sans Italic"
         xml:space="preserve"><tspan
           style="font-size:60px;font-style:italic;font-variant:normal;font-weight:normal;font-stretch:normal;font-family:Apple Chancery;-inkscape-font-specification:Apple Chancery"
           y="958.36218"
           x="237"
           id="tspan4641"
           sodipodi:role="line">e</tspan></text>
      <path
         inkscape:connector-curvature="0"
         id="text4643"
         d="m 296.05618,907.46875 -26.9399,33.60383 1.58687,1.03364 26.95835,-33.58274 -1.60532,-1.05473 z m -16.88357,4.17675 -1.80829,0.65393 -0.66427,2.4048 -1.23629,0 -1.60532,1.51881 2.43566,0 -1.58687,5.82214 c -0.36135,1.31842 -0.59354,2.27998 -0.70117,2.86887 -0.27678,1.59968 0.12609,2.4048 1.21783,2.4048 0.54586,0 1.26396,-0.34806 2.14043,-1.03364 0.87646,-0.68558 1.35468,-1.27974 1.43925,-1.77196 0.0231,-0.13184 -0.008,-0.27598 -0.0923,-0.44298 -0.89185,1.19537 -1.66837,1.79304 -2.30649,1.79304 -0.59201,0 -0.79652,-0.50451 -0.62737,-1.49772 0.0923,-0.50099 0.28754,-1.27447 0.57201,-2.32041 l 1.58687,-5.82214 3.6904,0 1.60532,-1.51881 -4.88978,0 0.83034,-3.05873 z m 27.49346,6.56044 -1.71604,1.58211 c 0.32289,0.5977 0.41822,1.25867 0.29524,1.9618 -0.35369,2.0128 -1.96363,3.01656 -4.81597,3.01654 l -6.88259,0 c -2.30651,2e-5 -4.21321,0.55024 -5.72012,1.66648 -2.02203,1.49422 -3.24909,3.44724 -3.67194,5.86432 -0.11533,0.65922 -0.12763,1.33952 -0.0738,2.02509 l 2.23269,-2.04618 c -0.22296,-0.76468 -0.27063,-1.51881 -0.14762,-2.25713 0.43055,-2.43467 2.25883,-3.64937 5.48024,-3.64938 l 1.95591,0 -2.50947,9.21837 -0.35058,1.28678 c -0.58433,2.09189 -1.40082,3.47887 -2.45412,4.15565 l -1.23628,-0.16876 -1.77139,1.64539 5.59095,0.27423 1.64223,-1.51882 -3.32136,-0.21094 c 1.06867,-0.52737 1.83135,-1.04946 2.26959,-1.6032 0.43823,-0.55373 0.81649,-1.4731 1.16248,-2.72121 l 0.40594,-1.45554 2.41721,-8.90195 3.21065,0 c 2.00663,10e-6 3.80108,-0.60294 5.36952,-1.77196 1.5684,-1.17776 2.49715,-2.61396 2.80471,-4.3455 0.13836,-0.82618 0.0799,-1.51879 -0.16607,-2.04619 z m -39.76403,1.51882 -1.80829,1.70867 5.40643,0 1.78984,-1.70867 -5.38798,0 z"
         style="font-size:40px;font-style:italic;font-weight:normal;line-height:125%;letter-spacing:0px;word-spacing:0px;fill:#000000;fill-opacity:1;stroke:none;font-family:Sans;-inkscape-font-specification:Sans Italic" />
    </g>
    <g
       id="g4688"
       transform="translate(216,25)">
      <text
         sodipodi:linespacing="125%"
         id="text4680"
         y="839.36218"
         x="24"
         style="font-size:40px;font-style:normal;font-variant:normal;font-weight:normal;font-stretch:normal;line-height:125%;letter-spacing:0px;word-spacing:0px;fill:#000000;fill-opacity:1;stroke:none;font-family:Handwriting -Dakota;-inkscape-font-specification:Handwriting -Dakota"
         xml:space="preserve"><tspan
           style="font-size:60px"
           y="839.36218"
           x="24"
           id="tspan4682"
           sodipodi:role="line">w</tspan></text>
      <text
         sodipodi:linespacing="125%"
         id="text4684"
         y="852.36218"
         x="71"
         style="font-size:40px;font-style:normal;font-variant:normal;font-weight:normal;font-stretch:normal;line-height:125%;letter-spacing:0px;word-spacing:0px;fill:#000000;fill-opacity:1;stroke:none;font-family:Handwriting -Dakota;-inkscape-font-specification:Handwriting -Dakota"
         xml:space="preserve"><tspan
           style="font-size:30px;font-style:normal;font-variant:normal;font-weight:normal;font-stretch:normal;font-family:Sans;-inkscape-font-specification:Times"
           y="852.36218"
           x="71"
           id="tspan4686"
           sodipodi:role="line">d</tspan></text>
    </g>
    <path
       style="fill:none;stroke:#000000;stroke-width:1px;stroke-linecap:butt;stroke-linejoin:miter;stroke-opacity:1"
       d="m 242,782.36218 0,29"
       id="path4694"
       inkscape:connector-curvature="0" />
    <path
       style="fill:none;stroke:#000000;stroke-width:1px;stroke-linecap:butt;stroke-linejoin:miter;stroke-opacity:1"
       d="m 304,759.36218 0,50"
       id="path4696"
       inkscape:connector-curvature="0" />
    <path
       style="fill:none;stroke:#000000;stroke-width:1.06600356px;stroke-linecap:butt;stroke-linejoin:miter;stroke-opacity:1"
       d="m 358,735.43036 0,73.86364"
       id="path4698"
       inkscape:connector-curvature="0" />
  </g>
</svg>
